<svg width="400" height="250" xmlns="http://www.w3.org/2000/svg">
  <defs>
    <linearGradient id="grad3" x1="0%" y1="0%" x2="100%" y2="100%">
      <stop offset="0%" style="stop-color:#f59e0b;stop-opacity:1" />
      <stop offset="100%" style="stop-color:#d97706;stop-opacity:1" />
    </linearGradient>
  </defs>
  <rect width="400" height="250" fill="url(#grad3)"/>
  <text x="200" y="120" font-family="Arial, sans-serif" font-size="24" font-weight="bold" text-anchor="middle" fill="white">Design System</text>
  <text x="200" y="150" font-family="Arial, sans-serif" font-size="16" text-anchor="middle" fill="white">Figma • Storybook • React</text>
  <rect x="50" y="60" width="80" height="60" fill="rgba(255,255,255,0.2)" rx="8"/>
  <rect x="60" y="70" width="60" height="8" fill="white" rx="4"/>
  <rect x="60" y="85" width="40" height="8" fill="white" rx="4"/>
  <rect x="60" y="100" width="50" height="8" fill="white" rx="4"/>
  
  <rect x="150" y="60" width="80" height="60" fill="rgba(255,255,255,0.2)" rx="8"/>
  <circle cx="170" cy="80" r="8" fill="white"/>
  <rect x="185" y="75" width="35" height="10" fill="white" rx="5"/>
  <rect x="160" y="95" width="60" height="8" fill="white" rx="4"/>
  <rect x="160" y="110" width="45" height="8" fill="white" rx="4"/>
  
  <rect x="250" y="60" width="80" height="60" fill="rgba(255,255,255,0.2)" rx="8"/>
  <rect x="260" y="70" width="60" height="8" fill="white" rx="4"/>
  <rect x="260" y="85" width="40" height="8" fill="white" rx="4"/>
  <rect x="260" y="100" width="50" height="8" fill="white" rx="4"/>
  
  <rect x="100" y="140" width="200" height="80" fill="rgba(255,255,255,0.1)" rx="10"/>
  <text x="200" y="170" font-family="Arial, sans-serif" font-size="14" text-anchor="middle" fill="white">Composants réutilisables</text>
  <text x="200" y="190" font-family="Arial, sans-serif" font-size="12" text-anchor="middle" fill="white">Guide de style et documentation</text>
</svg> 