<svg width="400" height="250" xmlns="http://www.w3.org/2000/svg">
  <defs>
    <linearGradient id="grad4" x1="0%" y1="0%" x2="100%" y2="100%">
      <stop offset="0%" style="stop-color:#8b5cf6;stop-opacity:1" />
      <stop offset="100%" style="stop-color:#7c3aed;stop-opacity:1" />
    </linearGradient>
  </defs>
  <rect width="400" height="250" fill="url(#grad4)"/>
  <text x="200" y="120" font-family="Arial, sans-serif" font-size="24" font-weight="bold" text-anchor="middle" fill="white">Dashboard Analytics</text>
  <text x="200" y="150" font-family="Arial, sans-serif" font-size="16" text-anchor="middle" fill="white">Vue.js • D3.js • Laravel</text>
  
  <!-- Graphique -->
  <rect x="50" y="60" width="300" height="120" fill="rgba(255,255,255,0.1)" rx="8"/>
  <rect x="60" y="160" width="40" height="10" fill="white" rx="2"/>
  <rect x="110" y="150" width="40" height="20" fill="white" rx="2"/>
  <rect x="160" y="140" width="40" height="30" fill="white" rx="2"/>
  <rect x="210" y="130" width="40" height="40" fill="white" rx="2"/>
  <rect x="260" y="120" width="40" height="50" fill="white" rx="2"/>
  <rect x="310" y="110" width="40" height="60" fill="white" rx="2"/>
  
  <!-- Ligne de tendance -->
  <path d="M 60 160 L 110 150 L 160 140 L 210 130 L 260 120 L 310 110" stroke="rgba(255,255,255,0.8)" stroke-width="2" fill="none"/>
  
  <!-- Points sur la ligne -->
  <circle cx="60" cy="160" r="3" fill="white"/>
  <circle cx="110" cy="150" r="3" fill="white"/>
  <circle cx="160" cy="140" r="3" fill="white"/>
  <circle cx="210" cy="130" r="3" fill="white"/>
  <circle cx="260" cy="120" r="3" fill="white"/>
  <circle cx="310" cy="110" r="3" fill="white"/>
</svg> 